<svg width="22" height="22" viewBox="0 0 22 22" fill="none" xmlns="http://www.w3.org/2000/svg">
<path d="M16.7762 17.4676C17.519 17.4676 18.1212 16.8654 18.1212 16.1226C18.1212 15.3798 17.519 14.7776 16.7762 14.7776C16.0333 14.7776 15.4312 15.3798 15.4312 16.1226C15.4312 16.8654 16.0333 17.4676 16.7762 17.4676Z" stroke="#545454" stroke-width="1.83333" stroke-linecap="round" stroke-linejoin="round"/>
<path d="M4 4.69C4 3.97657 4.28341 3.29236 4.78788 2.78788C5.29236 2.28341 5.97657 2 6.69 2C7.40343 2 8.08764 2.28341 8.59212 2.78788C9.09659 3.29236 9.38 3.97657 9.38 4.69V16.795C9.38 17.8651 9.80511 18.8915 10.5618 19.6482C11.3185 20.4049 12.3449 20.83 13.415 20.83C14.4851 20.83 15.5115 20.4049 16.2682 19.6482C17.0249 18.8915 17.45 17.8651 17.45 16.795V16.1225M5.345 10.07H13.415" stroke="#545454" stroke-width="1.83333" stroke-linecap="round" stroke-linejoin="round"/>
</svg>
